<svg width="33" height="27" viewBox="0 0 33 27" fill="none" xmlns="http://www.w3.org/2000/svg">
<path fill-rule="evenodd" clip-rule="evenodd" d="M20.097 14.4476V9.35278V9.21741L21.5871 10.0912L21.5746 13.1923L20.0845 14.4476H20.097ZM21.7624 25.6463H11.5943C9.77857 25.6463 8.16318 25.314 7.92526 27H25.3313C25.131 25.351 23.6158 25.6586 21.775 25.6463H21.7624ZM17.4548 5.6732L16.5532 5.10711C16.3152 5.43938 16.0898 5.4763 15.8143 5.68551V18.5579C15.8143 20.49 16.1524 22.2129 14.7249 23.3204C13.8233 24.0219 13.4601 23.8619 12.1453 23.9357C11.2812 23.9727 10.2795 24.5387 10.292 25.2156L22.927 25.2033C22.9646 24.6495 22.1632 24.1696 21.5871 24.0219C20.5853 23.7634 20.0719 24.1942 19.0326 23.6527C17.0165 22.6067 17.4673 20.5146 17.4673 18.1026L17.4548 5.6732ZM29.0129 8.01139C29.0505 7.92525 29.088 8.04831 29.0129 8.01139V8.01139ZM24.1667 19.0624C23.4029 20.8099 25.5943 23.1358 28.512 23.1112C30.3528 23.0989 31.8555 22.1636 32.4691 21.216C33.5335 19.6039 32.7195 18.8409 32.0558 17.2288C31.5048 15.912 30.9538 14.6568 30.4154 13.3154C29.9646 12.1586 29.063 10.4727 28.8 9.34047C29.2759 9.08204 29.7392 8.9959 30.0272 8.66363C30.3903 8.24521 30.4279 7.64221 30.1023 7.2361C29.8268 6.89152 29.1256 6.70693 28.7123 7.00228C28.5245 7.12534 28.3993 7.35916 28.5245 7.61759C28.6247 7.8268 28.775 7.80219 28.9127 7.93756C28.9503 7.97448 28.9753 7.99909 29.0004 7.99909C28.9878 8.01139 28.9878 8.03601 28.9753 8.06062C28.2991 8.34366 27.6605 7.94986 27.2222 7.69143L20.0344 3.69189C19.3957 3.335 19.1954 3.08888 18.4691 3.49499C17.7929 3.87648 17.5174 3.81495 17.2794 4.57794C17.5675 4.8979 17.5675 4.78715 17.7428 5.16864C19.4834 4.91021 21.1614 6.16545 23.0773 7.08842C24.3546 7.70374 26.8465 9.22972 28.224 9.27894C28.0111 10.165 24.8555 17.4503 24.1542 19.0501L24.1667 19.0624ZM28.1864 19.4439H24.6551L28.2365 11.1618L28.1864 19.4439ZM32.3438 19.4439H28.8125L28.9002 11.088L32.3563 19.4439H32.3438ZM8.36354 19.4439H4.80719L4.81972 11.1618C5.13278 11.4818 5.63367 12.8847 5.79646 13.2785L8.36354 19.4439ZM8.5639 21.0807C9.49055 19.6162 8.62651 18.5333 8.01291 17.0811C7.59968 16.1089 4.81972 9.74658 4.83224 9.29125C6.49771 9.10665 8.47624 7.85141 9.97892 7.11304C10.8054 6.70693 11.5943 6.32543 12.4208 5.90702C13.1095 5.55014 14.2365 4.83637 15.2508 5.18095C15.4512 5.05789 15.7392 4.83637 15.902 4.67639C15.8018 3.99954 15.4261 3.86418 14.8626 3.59344C13.9485 3.15041 14.1739 3.16272 13.2347 3.61805C12.2329 4.12261 11.2562 4.6887 10.2795 5.21787C9.26515 5.77165 8.31345 6.30082 7.33671 6.8423C6.24726 7.433 4.94494 8.45442 4.05585 8.0237C3.93063 7.58068 4.04333 8.10985 4.45657 7.66682C4.63188 7.48222 4.58179 7.26071 4.46909 7.11304C3.64262 6.04239 1.33851 8.04831 3.91811 9.14357L4.23117 9.29125C3.98072 10.2511 1.53886 15.7274 0.950313 17.1673C0.299151 18.7425 -0.577413 19.5547 0.524553 21.2037C2.21507 23.7265 6.89843 23.665 8.5639 21.0561V21.0807ZM4.1936 19.4439H0.61221L4.21864 11.1126L4.1936 19.4439ZM16.5782 4.63947C17.5675 4.09799 16.5031 3.72881 18.5693 1.91978C18.444 1.64904 18.0433 1.31677 17.6301 0.910665L16.5782 0L14.6372 1.80902C16.7034 3.93801 15.6015 3.85187 16.5782 4.62716V4.63947ZM14.7374 6.32543L9.9664 9.77119V18.4348L14.6998 22.1021V19.8993L11.6569 17.3396L11.6694 14.866L14.6122 14.9152V13.1923H11.6193V10.6572L14.7374 8.33136V6.32543ZM23.1649 18.9025L23.2276 9.35278L18.4315 6.10392L18.5066 22.3851L20.385 20.8099V16.3428L21.9878 14.9891V19.6778L23.1775 18.8902L23.1649 18.9025Z" fill="#EFA657"/>
</svg>
