<svg width="250" height="27" viewBox="0 0 250 27" fill="none" xmlns="http://www.w3.org/2000/svg">
<path d="M55.48 22V7.6H57.6V22H55.48ZM56.52 22V20.26H65.48V22H56.52ZM56.52 15.42V13.68H64.76V15.42H56.52ZM56.52 9.34V7.6H65.3V9.34H56.52ZM70.1769 22L66.0169 11.8H68.2369L71.6369 21.06H70.6569L74.0169 11.8H76.1569L72.0169 22H70.1769ZM77.7061 22V11.8H79.7861V22H77.7061ZM77.6061 9.8V7.46H79.9061V9.8H77.6061ZM88.8894 22C88.8227 21.7467 88.776 21.4667 88.7494 21.16C88.736 20.8533 88.7294 20.48 88.7294 20.04H88.6294V15.18C88.6294 14.5267 88.4627 14.04 88.1294 13.72C87.8094 13.3867 87.296 13.22 86.5894 13.22C85.9094 13.22 85.3627 13.3533 84.9494 13.62C84.5494 13.8867 84.316 14.2667 84.2494 14.76H82.2694C82.3627 13.8 82.796 13.0333 83.5694 12.46C84.3427 11.8867 85.376 11.6 86.6694 11.6C88.0027 11.6 89.0027 11.9133 89.6694 12.54C90.336 13.1533 90.6694 14.06 90.6694 15.26V20.04C90.6694 20.3467 90.6894 20.66 90.7294 20.98C90.7694 21.3 90.8294 21.64 90.9094 22H88.8894ZM85.3694 22.2C84.3294 22.2 83.5027 21.9467 82.8894 21.44C82.276 20.92 81.9694 20.22 81.9694 19.34C81.9694 18.4333 82.2894 17.72 82.9294 17.2C83.5827 16.6667 84.516 16.3067 85.7294 16.12L89.0894 15.58V17.04L86.0494 17.52C85.3694 17.6267 84.856 17.8067 84.5094 18.06C84.176 18.3133 84.0094 18.68 84.0094 19.16C84.0094 19.6267 84.1627 19.98 84.4694 20.22C84.7894 20.4467 85.2494 20.56 85.8494 20.56C86.6494 20.56 87.3094 20.3667 87.8294 19.98C88.3627 19.5933 88.6294 19.1067 88.6294 18.52L88.8894 20C88.6494 20.7067 88.2227 21.2533 87.6094 21.64C86.996 22.0133 86.2494 22.2 85.3694 22.2ZM93.4873 22V11.8H95.4673V14.2H95.5673V22H93.4873ZM100.727 22V15.44C100.727 14.7333 100.547 14.2067 100.187 13.86C99.8407 13.5133 99.3207 13.34 98.6273 13.34C98.0273 13.34 97.494 13.4733 97.0273 13.74C96.574 14.0067 96.214 14.3733 95.9473 14.84C95.694 15.3067 95.5673 15.86 95.5673 16.5L95.3073 14.06C95.6407 13.3 96.154 12.7 96.8473 12.26C97.5407 11.82 98.3473 11.6 99.2673 11.6C100.361 11.6 101.221 11.9067 101.847 12.52C102.474 13.1333 102.787 13.9467 102.787 14.96V22H100.727ZM120.262 22L112.622 14.06C112.182 13.5933 111.828 13.1733 111.562 12.8C111.295 12.4267 111.102 12.0667 110.982 11.72C110.862 11.36 110.802 10.9933 110.802 10.62C110.802 10.0067 110.968 9.46 111.302 8.98C111.635 8.5 112.088 8.12 112.662 7.84C113.235 7.54667 113.902 7.4 114.662 7.4C115.395 7.4 116.048 7.53333 116.622 7.8C117.208 8.06667 117.675 8.44667 118.022 8.94C118.368 9.42 118.542 10 118.542 10.68C118.542 11.5067 118.228 12.2467 117.602 12.9C116.988 13.54 116.055 14.0667 114.802 14.48L113.762 13.22C114.735 12.9533 115.455 12.6067 115.922 12.18C116.402 11.7533 116.642 11.26 116.642 10.7C116.642 10.18 116.455 9.76667 116.082 9.46C115.708 9.14 115.235 8.98 114.662 8.98C114.102 8.98 113.648 9.13333 113.302 9.44C112.968 9.74667 112.802 10.1467 112.802 10.64C112.802 10.8933 112.855 11.1533 112.962 11.42C113.068 11.6733 113.262 11.98 113.542 12.34C113.835 12.6867 114.262 13.1467 114.822 13.72L122.942 22H120.262ZM114.262 22.2C113.182 22.2 112.235 22.02 111.422 21.66C110.608 21.3 109.975 20.8 109.522 20.16C109.082 19.5067 108.862 18.76 108.862 17.92C108.862 16.8267 109.235 15.8867 109.982 15.1C110.742 14.3133 111.802 13.7533 113.162 13.42L114.202 14.66C113.455 14.86 112.835 15.1067 112.342 15.4C111.862 15.6933 111.508 16.0333 111.282 16.42C111.055 16.7933 110.942 17.2267 110.942 17.72C110.942 18.5867 111.248 19.26 111.862 19.74C112.475 20.22 113.315 20.46 114.382 20.46C115.155 20.46 115.855 20.3333 116.482 20.08C117.122 19.8267 117.675 19.44 118.142 18.92C118.608 18.4 118.968 17.7533 119.222 16.98C119.475 16.1933 119.602 15.28 119.602 14.24H121.582C121.582 15.2 121.468 16.0933 121.242 16.92C121.015 17.7333 120.682 18.4733 120.242 19.14C119.815 19.7933 119.302 20.3467 118.702 20.8C118.102 21.2533 117.428 21.6 116.682 21.84C115.935 22.08 115.128 22.2 114.262 22.2ZM135.082 22.2C134.082 22.2 133.155 22.02 132.302 21.66C131.448 21.2867 130.708 20.7733 130.082 20.12C129.468 19.4533 128.988 18.6667 128.642 17.76C128.295 16.8533 128.122 15.86 128.122 14.78C128.122 13.7 128.288 12.7133 128.622 11.82C128.968 10.9133 129.448 10.1333 130.062 9.48C130.688 8.81333 131.428 8.3 132.282 7.94C133.135 7.58 134.062 7.4 135.062 7.4C136.182 7.4 137.188 7.62667 138.082 8.08C138.975 8.52 139.702 9.14667 140.262 9.96C140.835 10.7733 141.188 11.72 141.322 12.8H139.242C139.068 11.6667 138.608 10.7867 137.862 10.16C137.128 9.52 136.202 9.2 135.082 9.2C134.135 9.2 133.295 9.43333 132.562 9.9C131.842 10.3533 131.282 11 130.882 11.84C130.482 12.6667 130.282 13.6467 130.282 14.78C130.282 15.9 130.482 16.8867 130.882 17.74C131.295 18.58 131.862 19.2333 132.582 19.7C133.302 20.1667 134.135 20.4 135.082 20.4C136.202 20.4 137.135 20.0867 137.882 19.46C138.642 18.82 139.102 17.9333 139.262 16.8H141.362C141.215 17.8933 140.855 18.8467 140.282 19.66C139.708 20.46 138.975 21.0867 138.082 21.54C137.202 21.98 136.202 22.2 135.082 22.2ZM147.986 22.2C146.946 22.2 146.033 21.9733 145.246 21.52C144.459 21.0533 143.846 20.42 143.406 19.62C142.966 18.8067 142.746 17.8867 142.746 16.86C142.746 15.82 142.966 14.9067 143.406 14.12C143.859 13.3333 144.473 12.72 145.246 12.28C146.033 11.8267 146.946 11.6 147.986 11.6C149.039 11.6 149.959 11.8267 150.746 12.28C151.533 12.72 152.139 13.3333 152.566 14.12C153.006 14.9067 153.226 15.82 153.226 16.86C153.226 17.8867 153.006 18.8067 152.566 19.62C152.139 20.42 151.533 21.0533 150.746 21.52C149.959 21.9733 149.039 22.2 147.986 22.2ZM147.986 20.5C148.613 20.5 149.153 20.3467 149.606 20.04C150.073 19.7333 150.439 19.3067 150.706 18.76C150.973 18.2133 151.106 17.5733 151.106 16.84C151.106 15.7467 150.813 14.8867 150.226 14.26C149.653 13.62 148.906 13.3 147.986 13.3C147.079 13.3 146.333 13.62 145.746 14.26C145.173 14.9 144.886 15.76 144.886 16.84C144.886 17.5733 145.013 18.2133 145.266 18.76C145.533 19.3067 145.899 19.7333 146.366 20.04C146.846 20.3467 147.386 20.5 147.986 20.5ZM158.488 22L163.908 7.6H165.748L160.568 22H158.488ZM169.628 22L164.448 7.6H166.388L171.828 22H169.628ZM161.228 16.26H168.948V18.02H161.228V16.26ZM177.241 22.2C176.055 22.2 175.181 21.9267 174.621 21.38C174.075 20.82 173.801 20 173.801 18.92V9.46L175.861 8.68V18.94C175.861 19.4733 176.001 19.8667 176.281 20.12C176.561 20.3733 177.015 20.5 177.641 20.5C177.881 20.5 178.095 20.48 178.281 20.44C178.468 20.4 178.628 20.3533 178.761 20.3V21.98C178.615 22.0467 178.408 22.1 178.141 22.14C177.875 22.18 177.575 22.2 177.241 22.2ZM171.761 13.46V11.8H178.761V13.46H171.761ZM185.327 22.2C184.141 22.2 183.267 21.9267 182.707 21.38C182.161 20.82 181.887 20 181.887 18.92V9.46L183.947 8.68V18.94C183.947 19.4733 184.087 19.8667 184.367 20.12C184.647 20.3733 185.101 20.5 185.727 20.5C185.967 20.5 186.181 20.48 186.367 20.44C186.554 20.4 186.714 20.3533 186.847 20.3V21.98C186.701 22.0467 186.494 22.1 186.227 22.14C185.961 22.18 185.661 22.2 185.327 22.2ZM179.847 13.46V11.8H186.847V13.46H179.847ZM192.986 22.2C191.946 22.2 191.033 21.9733 190.246 21.52C189.459 21.0533 188.846 20.42 188.406 19.62C187.966 18.8067 187.746 17.8867 187.746 16.86C187.746 15.82 187.966 14.9067 188.406 14.12C188.859 13.3333 189.473 12.72 190.246 12.28C191.033 11.8267 191.946 11.6 192.986 11.6C194.039 11.6 194.959 11.8267 195.746 12.28C196.533 12.72 197.139 13.3333 197.566 14.12C198.006 14.9067 198.226 15.82 198.226 16.86C198.226 17.8867 198.006 18.8067 197.566 19.62C197.139 20.42 196.533 21.0533 195.746 21.52C194.959 21.9733 194.039 22.2 192.986 22.2ZM192.986 20.5C193.613 20.5 194.153 20.3467 194.606 20.04C195.073 19.7333 195.439 19.3067 195.706 18.76C195.973 18.2133 196.106 17.5733 196.106 16.84C196.106 15.7467 195.813 14.8867 195.226 14.26C194.653 13.62 193.906 13.3 192.986 13.3C192.079 13.3 191.333 13.62 190.746 14.26C190.173 14.9 189.886 15.76 189.886 16.84C189.886 17.5733 190.013 18.2133 190.266 18.76C190.533 19.3067 190.899 19.7333 191.366 20.04C191.846 20.3467 192.386 20.5 192.986 20.5ZM200.362 22V11.8H202.342V14.34H202.442V22H200.362ZM202.442 16.68L202.182 14.26C202.422 13.3933 202.836 12.7333 203.422 12.28C204.009 11.8267 204.709 11.6 205.522 11.6C205.829 11.6 206.042 11.6267 206.162 11.68V13.64C206.096 13.6133 206.002 13.6 205.882 13.6C205.762 13.5867 205.616 13.58 205.442 13.58C204.442 13.58 203.689 13.84 203.182 14.36C202.689 14.88 202.442 15.6533 202.442 16.68ZM208.019 22V11.8H209.999V14.2H210.099V22H208.019ZM215.259 22V15.44C215.259 14.7333 215.079 14.2067 214.719 13.86C214.372 13.5133 213.852 13.34 213.159 13.34C212.559 13.34 212.025 13.4733 211.559 13.74C211.105 14.0067 210.745 14.3733 210.479 14.84C210.225 15.3067 210.099 15.86 210.099 16.5L209.839 14.06C210.172 13.3 210.685 12.7 211.379 12.26C212.072 11.82 212.879 11.6 213.799 11.6C214.892 11.6 215.752 11.9067 216.379 12.52C217.005 13.1333 217.319 13.9467 217.319 14.96V22H215.259ZM224.548 22.2C223.521 22.2 222.614 21.9733 221.828 21.52C221.054 21.0667 220.448 20.44 220.007 19.64C219.567 18.84 219.347 17.92 219.347 16.88C219.347 15.8267 219.561 14.9067 219.988 14.12C220.428 13.32 221.041 12.7 221.828 12.26C222.614 11.82 223.514 11.6 224.528 11.6C225.514 11.6 226.368 11.8133 227.088 12.24C227.821 12.6533 228.381 13.2333 228.768 13.98C229.168 14.7267 229.368 15.6133 229.368 16.64C229.368 16.8 229.361 16.9533 229.348 17.1C229.348 17.2333 229.334 17.3733 229.308 17.52H220.748V15.96H227.848L227.328 16.58C227.328 15.4867 227.081 14.6533 226.588 14.08C226.094 13.5067 225.408 13.22 224.528 13.22C223.581 13.22 222.828 13.5467 222.268 14.2C221.721 14.84 221.448 15.7333 221.448 16.88C221.448 18.04 221.721 18.9467 222.268 19.6C222.828 20.2533 223.601 20.58 224.588 20.58C225.188 20.58 225.708 20.46 226.148 20.22C226.588 19.9667 226.914 19.6 227.128 19.12H229.088C228.754 20.08 228.188 20.8333 227.388 21.38C226.601 21.9267 225.654 22.2 224.548 22.2ZM231.982 26.1L234.442 20.48L234.862 19.82L237.962 11.8H240.122L234.122 26.1H231.982ZM234.342 22L229.982 11.8H232.242L235.942 20.98L234.342 22ZM245.253 22.2C243.92 22.2 242.86 21.9067 242.073 21.32C241.287 20.7333 240.84 19.9067 240.733 18.84H242.653C242.747 19.4267 243.013 19.88 243.453 20.2C243.907 20.5067 244.52 20.66 245.293 20.66C245.973 20.66 246.493 20.54 246.853 20.3C247.213 20.06 247.393 19.72 247.393 19.28C247.393 18.96 247.287 18.6933 247.073 18.48C246.873 18.2533 246.473 18.0667 245.873 17.92L244.233 17.54C243.207 17.2867 242.44 16.9133 241.933 16.42C241.44 15.9133 241.193 15.2933 241.193 14.56C241.193 13.64 241.533 12.92 242.213 12.4C242.907 11.8667 243.853 11.6 245.053 11.6C246.24 11.6 247.193 11.8667 247.913 12.4C248.647 12.9333 249.06 13.68 249.153 14.64H247.233C247.153 14.16 246.92 13.7933 246.533 13.54C246.16 13.2733 245.647 13.14 244.993 13.14C244.38 13.14 243.907 13.2533 243.573 13.48C243.253 13.6933 243.093 13.9933 243.093 14.38C243.093 14.7 243.213 14.9667 243.453 15.18C243.707 15.3933 244.12 15.5733 244.693 15.72L246.373 16.14C247.347 16.38 248.08 16.7733 248.573 17.32C249.067 17.8533 249.313 18.5 249.313 19.26C249.313 20.18 248.953 20.9 248.233 21.42C247.527 21.94 246.533 22.2 245.253 22.2Z" fill="#1E1E1E"/>
<path fill-rule="evenodd" clip-rule="evenodd" d="M20.097 14.4476V9.35278V9.21741L21.5871 10.0912L21.5746 13.1923L20.0845 14.4476H20.097ZM21.7624 25.6463H11.5943C9.77857 25.6463 8.16318 25.314 7.92526 27H25.3313C25.131 25.351 23.6158 25.6586 21.775 25.6463H21.7624ZM17.4548 5.6732L16.5532 5.10711C16.3152 5.43938 16.0898 5.4763 15.8143 5.68551V18.5579C15.8143 20.49 16.1524 22.2129 14.7249 23.3204C13.8233 24.0219 13.4601 23.8619 12.1453 23.9357C11.2812 23.9727 10.2795 24.5387 10.292 25.2156L22.927 25.2033C22.9646 24.6495 22.1632 24.1696 21.5871 24.0219C20.5853 23.7634 20.0719 24.1942 19.0326 23.6527C17.0165 22.6067 17.4673 20.5146 17.4673 18.1026L17.4548 5.6732ZM29.0129 8.01139C29.0505 7.92525 29.088 8.04831 29.0129 8.01139V8.01139ZM24.1667 19.0624C23.4029 20.8099 25.5943 23.1358 28.512 23.1112C30.3528 23.0989 31.8555 22.1636 32.4691 21.216C33.5335 19.6039 32.7195 18.8409 32.0558 17.2288C31.5048 15.912 30.9538 14.6568 30.4154 13.3154C29.9646 12.1586 29.063 10.4727 28.8 9.34047C29.2759 9.08204 29.7392 8.9959 30.0272 8.66363C30.3903 8.24521 30.4279 7.64221 30.1023 7.2361C29.8268 6.89152 29.1256 6.70693 28.7123 7.00228C28.5245 7.12534 28.3993 7.35916 28.5245 7.61759C28.6247 7.8268 28.775 7.80219 28.9127 7.93756C28.9503 7.97448 28.9753 7.99909 29.0004 7.99909C28.9878 8.01139 28.9878 8.03601 28.9753 8.06062C28.2991 8.34366 27.6605 7.94986 27.2222 7.69143L20.0344 3.69189C19.3957 3.335 19.1954 3.08888 18.4691 3.49499C17.7929 3.87648 17.5174 3.81495 17.2794 4.57794C17.5675 4.8979 17.5675 4.78715 17.7428 5.16864C19.4834 4.91021 21.1614 6.16545 23.0773 7.08842C24.3546 7.70374 26.8465 9.22972 28.224 9.27894C28.0111 10.165 24.8555 17.4503 24.1542 19.0501L24.1667 19.0624ZM28.1864 19.4439H24.6551L28.2365 11.1618L28.1864 19.4439ZM32.3438 19.4439H28.8125L28.9002 11.088L32.3563 19.4439H32.3438ZM8.36354 19.4439H4.80719L4.81972 11.1618C5.13278 11.4818 5.63367 12.8847 5.79646 13.2785L8.36354 19.4439ZM8.5639 21.0807C9.49055 19.6162 8.62651 18.5333 8.01291 17.0811C7.59968 16.1089 4.81972 9.74658 4.83224 9.29125C6.49771 9.10665 8.47624 7.85141 9.97892 7.11304C10.8054 6.70693 11.5943 6.32543 12.4208 5.90702C13.1095 5.55014 14.2365 4.83637 15.2508 5.18095C15.4512 5.05789 15.7392 4.83637 15.902 4.67639C15.8018 3.99954 15.4261 3.86418 14.8626 3.59344C13.9485 3.15041 14.1739 3.16272 13.2347 3.61805C12.2329 4.12261 11.2562 4.6887 10.2795 5.21787C9.26515 5.77165 8.31345 6.30082 7.33671 6.8423C6.24726 7.433 4.94494 8.45442 4.05585 8.0237C3.93063 7.58068 4.04333 8.10985 4.45657 7.66682C4.63188 7.48222 4.58179 7.26071 4.46909 7.11304C3.64262 6.04239 1.33851 8.04831 3.91811 9.14357L4.23117 9.29125C3.98072 10.2511 1.53886 15.7274 0.950313 17.1673C0.299151 18.7425 -0.577413 19.5547 0.524553 21.2037C2.21507 23.7265 6.89843 23.665 8.5639 21.0561V21.0807ZM4.1936 19.4439H0.61221L4.21864 11.1126L4.1936 19.4439ZM16.5782 4.63947C17.5675 4.09799 16.5031 3.72881 18.5693 1.91978C18.444 1.64904 18.0433 1.31677 17.6301 0.910665L16.5782 0L14.6372 1.80902C16.7034 3.93801 15.6015 3.85187 16.5782 4.62716V4.63947ZM14.7374 6.32543L9.9664 9.77119V18.4348L14.6998 22.1021V19.8993L11.6569 17.3396L11.6694 14.866L14.6122 14.9152V13.1923H11.6193V10.6572L14.7374 8.33136V6.32543ZM23.1649 18.9025L23.2276 9.35278L18.4315 6.10392L18.5066 22.3851L20.385 20.8099V16.3428L21.9878 14.9891V19.6778L23.1775 18.8902L23.1649 18.9025Z" fill="#EFA657"/>
</svg>
