<svg width="77" height="77" viewBox="0 0 77 77" fill="none" xmlns="http://www.w3.org/2000/svg">
<path d="M76.9096 35.3452C76.7771 34.9336 76.5082 34.5525 76.1266 34.2356C75.7451 33.9187 75.2628 33.6759 74.7226 33.5286L49.5246 26.5931L55.9367 3.05854C56.0819 2.51172 55.9808 1.94509 55.6486 1.44415C55.3164 0.943207 54.7712 0.535134 54.0952 0.28151C53.4192 0.0278861 52.6491 -0.0575274 51.9012 0.0381587C51.1532 0.133845 50.468 0.405438 49.9488 0.811956L0.961038 39.3248C0.563165 39.6324 0.275338 40.0076 0.123274 40.4167C-0.0287903 40.8259 -0.040357 41.2563 0.0896083 41.6696C0.219574 42.0828 0.487022 42.466 0.86806 42.7849C1.2491 43.1038 1.73186 43.3485 2.27321 43.497L27.48 50.4326L21.0854 73.9415C20.9402 74.4883 21.0413 75.0549 21.3735 75.5558C21.7057 76.0568 22.2509 76.4649 22.9269 76.7185C23.6029 76.9721 24.373 77.0575 25.1209 76.9618C25.8689 76.8662 26.5541 76.5946 27.0733 76.188L76.0611 37.6752C76.4517 37.3675 76.7334 36.9941 76.8814 36.5878C77.0294 36.1815 77.039 35.7548 76.9096 35.3452ZM30.3625 66.1009L34.9419 49.29C35.1058 48.6938 34.976 48.0743 34.5755 47.5418C34.1749 47.0093 33.5298 46.5984 32.755 46.3823L9.64325 40.0116L46.6553 10.9152L42.0802 27.726C41.9163 28.3222 42.0461 28.9418 42.4466 29.4743C42.8471 30.0068 43.4923 30.4177 44.2671 30.6337L67.3614 36.9884L30.3625 66.1009Z" fill="#182492"/>
</svg>
